# xmcd
#
# Track frame offsets:
#	150
#	12648
#	25381
#	36922
#	52818
#	65215
#	78486
#	93524
#	105714
#	117820
#	128909
#	141408
#	155412
#	167583
#	180974
#	195000
#	207375
#	217701
#	228360
#	241086
#
# Disc length: 3375 seconds
#
# Revision: 0
# Processed by: cddbd v1.5.2PL0 Copyright (c) Steve Scherf et al.
# Submitted via: dBpowerAMP V4.0
#
DISCID=080d2d14
DTITLE=Various Artist - Country Outlaws - CD1
DYEAR=1900
DGENRE=Country
TTITLE0=Hank Williams - Move it on over
TTITLE1=Johnny Cash - Folsom prison blues
TTITLE2=Patsy Cline - Walkin' after Midnight
TTITLE3=Jimmie Rodgers - Blue Yodel
TTITLE4=The Carter Family - Worried man blues
TTITLE5=Jerry Lee Lewis - You win again
TTITLE6=Willie Nelson - Face of a fighter
TTITLE7=Waylon Jennings - Don't think twice It's alright
TTITLE8=David allan Coe - Mississipi woman
TTITLE9=Carl Perkins - Dixie Fried
TTITLE10=George Jones - White lightning
TTITLE11=Bill Monroe and his Blue Grass Boys - Blue noon of Kentucky
TTITLE12=The Louvin Brothers - Cash on the barrel head
TTITLE13=Kitty Wells - I don't claim to be an angel
TTITLE14=Lefty Frizzell - The long black veil
TTITLE15=Webb Pierce - Back street affair
TTITLE16=Hanck Locklin - Let me be the one
TTITLE17=Ernest Tubb - Try me one more time
TTITLE18=The flatlanders - Dallas
TTITLE19=Ted Daffan and his Texans - Born to lose
EXTD=
EXTT0=
EXTT1=
EXTT2=
EXTT3=
EXTT4=
EXTT5=
EXTT6=
EXTT7=
EXTT8=
EXTT9=
EXTT10=
EXTT11=
EXTT12=
EXTT13=
EXTT14=
EXTT15=
EXTT16=
EXTT17=
EXTT18=
EXTT19=
PLAYORDER=
